<svg width="160" height="160" viewBox="0 0 160 160" fill="none" xmlns="http://www.w3.org/2000/svg">
<g clip-path="url(#clip0_2759_9577)">
<path fill-rule="evenodd" clip-rule="evenodd" d="M75.475 1.75564C74.248 2.98264 71.376 12.7166 66.843 31.0056C63.107 46.0816 59.547 58.9196 58.932 59.5346C58.317 60.1496 45.569 63.6866 30.603 67.3956C15.637 71.1046 2.625 74.7006 1.686 75.3866C-0.562 77.0296 -0.562 82.8036 1.686 84.4466C2.625 85.1326 15.637 88.7286 30.603 92.4376C45.569 96.1466 58.317 99.6836 58.932 100.299C59.547 100.914 63.107 113.752 66.843 128.828C73.721 156.581 75.047 159.917 79.203 159.917C84.138 159.917 85.155 157.497 92.436 128.43C96.29 113.043 99.61 100.287 99.814 100.083C100.018 99.8796 112.7 96.5776 127.997 92.7456C143.293 88.9136 156.597 85.0656 157.561 84.1926C159.813 82.1546 159.813 77.6786 157.561 75.6406C156.597 74.7676 143.293 70.9196 127.997 67.0876C112.7 63.2556 100.018 59.9536 99.814 59.7506C99.61 59.5466 96.29 46.7906 92.436 31.4036C86.852 9.11263 84.987 3.07064 83.26 1.67164C80.472 -0.585364 77.787 -0.556364 75.475 1.75564Z" fill="black"/>
</g>
<defs>
<clipPath id="clip0_2759_9577">
<rect width="160" height="160" fill="white"/>
</clipPath>
</defs>
</svg>
